<svg width="813" height="329" viewBox="0 0 813 329" fill="none" xmlns="http://www.w3.org/2000/svg">
<path d="M206.978 177.637C206.978 184.602 205.742 189.769 203.271 193.139C200.799 196.509 196.868 199.767 191.476 202.912C188.33 204.709 184.399 206.507 179.681 208.304C174.963 209.877 169.795 211.225 164.179 212.348C158.562 213.696 152.608 214.707 146.318 215.381C140.252 216.055 134.186 216.392 128.12 216.392C111.944 216.392 96.7786 214.258 82.6246 209.989C68.4706 205.496 56.1139 198.868 45.5546 190.106C35.2199 181.119 27.0196 169.998 20.9536 156.743C14.8876 143.488 11.8546 128.098 11.8546 110.574C11.8546 92.1513 15.1122 76.0877 21.6276 62.383C28.3676 48.6783 37.1296 37.3327 47.9136 28.346C58.9222 19.1347 71.3912 12.2823 85.3206 7.78898C99.4746 3.29566 113.966 1.04899 128.794 1.04899C150.137 1.04899 166.987 4.53133 179.344 11.496C191.925 18.236 198.216 27.1103 198.216 38.119C198.216 43.9603 196.755 49.0153 193.835 53.284C190.914 57.5527 187.544 60.9227 183.725 63.394C178.108 60.024 171.031 56.7663 162.494 53.621C154.181 50.251 144.745 48.566 134.186 48.566C115.314 48.566 100.261 53.958 89.0276 64.742C78.0189 75.526 72.5146 90.4663 72.5146 109.563C72.5146 119.898 73.9749 128.884 76.8956 136.523C80.0409 143.937 84.1972 150.115 89.3646 155.058C94.5319 159.776 100.486 163.371 107.226 165.842C113.966 168.089 121.155 169.212 128.794 169.212C133.736 169.212 138.117 168.763 141.937 167.864C145.756 166.965 148.677 165.954 150.699 164.831V133.153H114.64C113.292 130.682 111.944 127.424 110.596 123.38C109.472 119.336 108.911 115.067 108.911 110.574C108.911 102.486 110.708 96.6447 114.303 93.05C118.122 89.4553 122.952 87.658 128.794 87.658H185.747C192.487 87.658 197.654 89.5677 201.249 93.387C205.068 96.9817 206.978 102.149 206.978 108.889V177.637ZM277.095 212.011C267.434 212.011 259.795 209.203 254.179 203.586C248.562 197.969 245.754 190.331 245.754 180.67V6.44098C248.225 5.99165 252.157 5.42999 257.549 4.75598C262.941 3.85732 268.108 3.40798 273.051 3.40798C278.218 3.40798 282.711 3.85732 286.531 4.75598C290.575 5.42999 293.945 6.77799 296.641 8.79999C299.337 10.822 301.359 13.6303 302.707 17.225C304.055 20.8197 304.729 25.5377 304.729 31.379V164.494H381.902C383.474 166.965 384.935 170.335 386.283 174.604C387.631 178.648 388.305 182.917 388.305 187.41C388.305 196.397 386.395 202.8 382.576 206.619C378.756 210.214 373.701 212.011 367.411 212.011H277.095ZM596.21 135.512C596.21 147.644 594.076 158.765 589.807 168.875C585.763 178.76 579.809 187.298 571.946 194.487C564.083 201.452 554.534 206.844 543.301 210.663C532.068 214.482 519.374 216.392 505.22 216.392C491.066 216.392 478.372 214.482 467.139 210.663C455.906 206.844 446.357 201.452 438.494 194.487C430.631 187.298 424.565 178.76 420.296 168.875C416.252 158.765 414.23 147.644 414.23 135.512V6.778C416.701 6.32866 420.633 5.76699 426.025 5.093C431.417 4.19433 436.584 3.745 441.527 3.745C446.694 3.745 451.188 4.19433 455.007 5.093C459.051 5.76699 462.421 7.11499 465.117 9.13699C467.813 11.159 469.835 13.9673 471.183 17.562C472.531 21.1567 473.205 25.8747 473.205 31.716V134.501C473.205 145.285 476.126 153.71 481.967 159.776C488.033 165.842 495.784 168.875 505.22 168.875C514.881 168.875 522.632 165.842 528.473 159.776C534.314 153.71 537.235 145.285 537.235 134.501V6.778C539.706 6.32866 543.638 5.76699 549.03 5.093C554.422 4.19433 559.589 3.745 564.532 3.745C569.699 3.745 574.193 4.19433 578.012 5.093C582.056 5.76699 585.426 7.11499 588.122 9.13699C590.818 11.159 592.84 13.9673 594.188 17.562C595.536 21.1567 596.21 25.8747 596.21 31.716V135.512ZM715.529 101.475C724.965 101.475 732.154 99.3407 737.097 95.072C742.264 90.5787 744.848 83.8387 744.848 74.852C744.848 66.3147 742.152 59.7993 736.76 55.306C731.593 50.588 723.954 48.229 713.844 48.229C710.249 48.229 707.216 48.3413 704.745 48.566C702.498 48.566 700.139 48.7907 697.668 49.24V101.475H715.529ZM698.005 209.652C695.534 210.326 691.602 211 686.21 211.674C681.043 212.348 675.875 212.685 670.708 212.685C665.541 212.685 660.935 212.236 656.891 211.337C653.072 210.663 649.814 209.315 647.118 207.293C644.422 205.271 642.4 202.463 641.052 198.868C639.704 195.273 639.03 190.555 639.03 184.714V25.987C639.03 21.269 640.266 17.6743 642.737 15.203C645.433 12.507 649.028 10.3727 653.521 8.79999C661.16 6.10399 669.809 4.19432 679.47 3.07099C689.355 1.72299 699.241 1.04899 709.126 1.04899C740.13 1.04899 763.832 7.67666 780.233 20.932C796.634 34.1873 804.834 52.1607 804.834 74.852C804.834 85.8607 803.037 95.8583 799.442 104.845C796.072 113.607 790.905 121.246 783.94 127.761C777.2 134.052 768.55 138.994 757.991 142.589C747.656 145.959 735.637 147.644 721.932 147.644H698.005V209.652Z" fill="url(#paint0_linear_2_11)"/>
<path d="M39.095 302.477H55.005V305.229H39.095V302.477ZM39.439 318H36.257V287.9H56.897V290.652H39.439V318ZM84.848 318.258C82.5833 318.258 80.4763 317.885 78.527 317.14C76.6063 316.366 74.9293 315.291 73.496 313.915C72.0913 312.51 70.9877 310.891 70.185 309.056C69.411 307.193 69.024 305.157 69.024 302.95C69.024 300.743 69.411 298.722 70.185 296.887C70.9877 295.024 72.0913 293.404 73.496 292.028C74.9293 290.623 76.6063 289.548 78.527 288.803C80.4477 288.029 82.5547 287.642 84.848 287.642C87.1127 287.642 89.2053 288.029 91.126 288.803C93.0467 289.548 94.7093 290.609 96.114 291.985C97.5473 293.361 98.651 294.981 99.425 296.844C100.228 298.707 100.629 300.743 100.629 302.95C100.629 305.157 100.228 307.193 99.425 309.056C98.651 310.919 97.5473 312.539 96.114 313.915C94.7093 315.291 93.0467 316.366 91.126 317.14C89.2053 317.885 87.1127 318.258 84.848 318.258ZM84.848 315.42C86.654 315.42 88.3167 315.119 89.836 314.517C91.384 313.886 92.717 313.012 93.835 311.894C94.9817 310.747 95.8703 309.429 96.501 307.938C97.1317 306.419 97.447 304.756 97.447 302.95C97.447 301.144 97.1317 299.496 96.501 298.005C95.8703 296.486 94.9817 295.167 93.835 294.049C92.717 292.902 91.384 292.028 89.836 291.426C88.3167 290.795 86.654 290.48 84.848 290.48C83.042 290.48 81.365 290.795 79.817 291.426C78.269 292.028 76.9217 292.902 75.775 294.049C74.657 295.167 73.7683 296.486 73.109 298.005C72.4783 299.496 72.163 301.144 72.163 302.95C72.163 304.727 72.4783 306.376 73.109 307.895C73.7683 309.414 74.657 310.747 75.775 311.894C76.9217 313.012 78.269 313.886 79.817 314.517C81.365 315.119 83.042 315.42 84.848 315.42ZM116.361 318V287.9H127.627C130.179 287.9 132.372 288.316 134.206 289.147C136.041 289.95 137.446 291.125 138.42 292.673C139.424 294.192 139.925 296.041 139.925 298.22C139.925 300.341 139.424 302.176 138.42 303.724C137.446 305.243 136.041 306.419 134.206 307.25C132.372 308.053 130.179 308.454 127.627 308.454H118.124L119.543 306.992V318H116.361ZM136.915 318L129.175 307.078H132.615L140.398 318H136.915ZM119.543 307.25L118.124 305.745H127.541C130.551 305.745 132.83 305.086 134.378 303.767C135.955 302.448 136.743 300.599 136.743 298.22C136.743 295.812 135.955 293.949 134.378 292.63C132.83 291.311 130.551 290.652 127.541 290.652H118.124L119.543 289.147V307.25ZM168.162 318.258C164.32 318.258 161.296 317.154 159.088 314.947C156.881 312.74 155.777 309.472 155.777 305.143V287.9H158.959V305.014C158.959 308.569 159.762 311.192 161.367 312.883C162.973 314.574 165.237 315.42 168.162 315.42C171.114 315.42 173.393 314.574 174.998 312.883C176.604 311.192 177.406 308.569 177.406 305.014V287.9H180.503V305.143C180.503 309.472 179.399 312.74 177.191 314.947C175.013 317.154 172.003 318.258 168.162 318.258ZM198.691 318V287.9H201.314L215.074 311.378H213.698L227.329 287.9H229.952V318H226.899V292.673H227.63L215.074 314.173H213.569L200.927 292.673H201.744V318H198.691ZM268.213 318V287.9H280.468C283.679 287.9 286.488 288.545 288.896 289.835C291.333 291.096 293.225 292.859 294.572 295.124C295.92 297.389 296.593 299.997 296.593 302.95C296.593 305.903 295.92 308.511 294.572 310.776C293.225 313.041 291.333 314.818 288.896 316.108C286.488 317.369 283.679 318 280.468 318H268.213ZM271.395 315.248H280.296C282.962 315.248 285.27 314.732 287.219 313.7C289.197 312.639 290.731 311.192 291.82 309.357C292.91 307.494 293.454 305.358 293.454 302.95C293.454 300.513 292.91 298.378 291.82 296.543C290.731 294.708 289.197 293.275 287.219 292.243C285.27 291.182 282.962 290.652 280.296 290.652H271.395V315.248ZM315.177 301.359H331.087V304.068H315.177V301.359ZM315.521 315.248H333.624V318H312.339V287.9H332.979V290.652H315.521V315.248ZM369.557 318V287.9H382.543C385.897 287.9 388.492 288.574 390.326 289.921C392.19 291.268 393.121 293.175 393.121 295.64C393.121 297.274 392.734 298.65 391.96 299.768C391.215 300.886 390.183 301.732 388.864 302.305C387.574 302.878 386.155 303.165 384.607 303.165L385.338 302.133C387.259 302.133 388.907 302.434 390.283 303.036C391.688 303.609 392.777 304.484 393.551 305.659C394.325 306.806 394.712 308.239 394.712 309.959C394.712 312.51 393.766 314.488 391.874 315.893C390.011 317.298 387.187 318 383.403 318H369.557ZM372.739 315.377H383.36C385.998 315.377 388.019 314.933 389.423 314.044C390.828 313.127 391.53 311.679 391.53 309.701C391.53 307.752 390.828 306.333 389.423 305.444C388.019 304.527 385.998 304.068 383.36 304.068H372.395V301.445H382.328C384.736 301.445 386.6 300.986 387.918 300.069C389.266 299.152 389.939 297.79 389.939 295.984C389.939 294.149 389.266 292.788 387.918 291.899C386.6 290.982 384.736 290.523 382.328 290.523H372.739V315.377ZM405.759 318L419.519 287.9H422.658L436.418 318H433.064L420.422 289.749H421.712L409.07 318H405.759ZM411.177 309.959L412.123 307.379H429.624L430.57 309.959H411.177ZM449.998 318V287.9H461.264C463.815 287.9 466.008 288.316 467.843 289.147C469.677 289.95 471.082 291.125 472.057 292.673C473.06 294.192 473.562 296.041 473.562 298.22C473.562 300.341 473.06 302.176 472.057 303.724C471.082 305.243 469.677 306.419 467.843 307.25C466.008 308.053 463.815 308.454 461.264 308.454H451.761L453.18 306.992V318H449.998ZM470.552 318L462.812 307.078H466.252L474.035 318H470.552ZM453.18 307.25L451.761 305.745H461.178C464.188 305.745 466.467 305.086 468.015 303.767C469.591 302.448 470.38 300.599 470.38 298.22C470.38 295.812 469.591 293.949 468.015 292.63C466.467 291.311 464.188 290.652 461.178 290.652H451.761L453.18 289.147V307.25ZM492.51 301.359H508.42V304.068H492.51V301.359ZM492.854 315.248H510.957V318H489.672V287.9H510.312V290.652H492.854V315.248ZM535.335 318.258C533.099 318.258 530.949 317.9 528.885 317.183C526.85 316.438 525.273 315.492 524.155 314.345L525.402 311.894C526.463 312.926 527.882 313.8 529.659 314.517C531.465 315.205 533.357 315.549 535.335 315.549C537.227 315.549 538.761 315.32 539.936 314.861C541.14 314.374 542.015 313.729 542.559 312.926C543.133 312.123 543.419 311.235 543.419 310.26C543.419 309.085 543.075 308.139 542.387 307.422C541.728 306.705 540.854 306.146 539.764 305.745C538.675 305.315 537.471 304.942 536.152 304.627C534.834 304.312 533.515 303.982 532.196 303.638C530.878 303.265 529.659 302.778 528.541 302.176C527.452 301.574 526.563 300.786 525.875 299.811C525.216 298.808 524.886 297.503 524.886 295.898C524.886 294.407 525.273 293.046 526.047 291.813C526.85 290.552 528.068 289.548 529.702 288.803C531.336 288.029 533.429 287.642 535.98 287.642C537.672 287.642 539.349 287.886 541.011 288.373C542.674 288.832 544.107 289.477 545.311 290.308L544.236 292.845C542.946 291.985 541.57 291.354 540.108 290.953C538.675 290.552 537.285 290.351 535.937 290.351C534.131 290.351 532.641 290.595 531.465 291.082C530.29 291.569 529.416 292.229 528.842 293.06C528.298 293.863 528.025 294.78 528.025 295.812C528.025 296.987 528.355 297.933 529.014 298.65C529.702 299.367 530.591 299.926 531.68 300.327C532.798 300.728 534.017 301.087 535.335 301.402C536.654 301.717 537.958 302.061 539.248 302.434C540.567 302.807 541.771 303.294 542.86 303.896C543.978 304.469 544.867 305.243 545.526 306.218C546.214 307.193 546.558 308.468 546.558 310.045C546.558 311.507 546.157 312.869 545.354 314.13C544.552 315.363 543.319 316.366 541.656 317.14C540.022 317.885 537.915 318.258 535.335 318.258ZM584.783 301.359H600.693V304.068H584.783V301.359ZM585.127 315.248H603.23V318H581.945V287.9H602.585V290.652H585.127V315.248ZM639.164 318V287.9H650.43C652.981 287.9 655.174 288.316 657.009 289.147C658.844 289.95 660.248 291.125 661.223 292.673C662.226 294.192 662.728 296.041 662.728 298.22C662.728 300.341 662.226 302.176 661.223 303.724C660.248 305.243 658.844 306.419 657.009 307.25C655.174 308.081 652.981 308.497 650.43 308.497H640.927L642.346 306.992V318H639.164ZM642.346 307.25L640.927 305.702H650.344C653.354 305.702 655.633 305.057 657.181 303.767C658.758 302.448 659.546 300.599 659.546 298.22C659.546 295.812 658.758 293.949 657.181 292.63C655.633 291.311 653.354 290.652 650.344 290.652H640.927L642.346 289.147V307.25ZM690.544 318.258C686.703 318.258 683.679 317.154 681.471 314.947C679.264 312.74 678.16 309.472 678.16 305.143V287.9H681.342V305.014C681.342 308.569 682.145 311.192 683.75 312.883C685.356 314.574 687.62 315.42 690.544 315.42C693.497 315.42 695.776 314.574 697.381 312.883C698.987 311.192 699.789 308.569 699.789 305.014V287.9H702.885V305.143C702.885 309.472 701.782 312.74 699.574 314.947C697.396 317.154 694.386 318.258 690.544 318.258ZM721.074 318V287.9H734.06C737.414 287.9 740.008 288.574 741.843 289.921C743.706 291.268 744.638 293.175 744.638 295.64C744.638 297.274 744.251 298.65 743.477 299.768C742.732 300.886 741.7 301.732 740.381 302.305C739.091 302.878 737.672 303.165 736.124 303.165L736.855 302.133C738.776 302.133 740.424 302.434 741.8 303.036C743.205 303.609 744.294 304.484 745.068 305.659C745.842 306.806 746.229 308.239 746.229 309.959C746.229 312.51 745.283 314.488 743.391 315.893C741.528 317.298 738.704 318 734.92 318H721.074ZM724.256 315.377H734.877C737.514 315.377 739.535 314.933 740.94 314.044C742.345 313.127 743.047 311.679 743.047 309.701C743.047 307.752 742.345 306.333 740.94 305.444C739.535 304.527 737.514 304.068 734.877 304.068H723.912V301.445H733.845C736.253 301.445 738.116 300.986 739.435 300.069C740.782 299.152 741.456 297.79 741.456 295.984C741.456 294.149 740.782 292.788 739.435 291.899C738.116 290.982 736.253 290.523 733.845 290.523H724.256V315.377ZM770.391 318.258C768.155 318.258 766.005 317.9 763.941 317.183C761.906 316.438 760.329 315.492 759.211 314.345L760.458 311.894C761.519 312.926 762.938 313.8 764.715 314.517C766.521 315.205 768.413 315.549 770.391 315.549C772.283 315.549 773.817 315.32 774.992 314.861C776.196 314.374 777.07 313.729 777.615 312.926C778.188 312.123 778.475 311.235 778.475 310.26C778.475 309.085 778.131 308.139 777.443 307.422C776.784 306.705 775.909 306.146 774.82 305.745C773.731 305.315 772.527 304.942 771.208 304.627C769.889 304.312 768.571 303.982 767.252 303.638C765.933 303.265 764.715 302.778 763.597 302.176C762.508 301.574 761.619 300.786 760.931 299.811C760.272 298.808 759.942 297.503 759.942 295.898C759.942 294.407 760.329 293.046 761.103 291.813C761.906 290.552 763.124 289.548 764.758 288.803C766.392 288.029 768.485 287.642 771.036 287.642C772.727 287.642 774.404 287.886 776.067 288.373C777.73 288.832 779.163 289.477 780.367 290.308L779.292 292.845C778.002 291.985 776.626 291.354 775.164 290.953C773.731 290.552 772.34 290.351 770.993 290.351C769.187 290.351 767.696 290.595 766.521 291.082C765.346 291.569 764.471 292.229 763.898 293.06C763.353 293.863 763.081 294.78 763.081 295.812C763.081 296.987 763.411 297.933 764.07 298.65C764.758 299.367 765.647 299.926 766.736 300.327C767.854 300.728 769.072 301.087 770.391 301.402C771.71 301.717 773.014 302.061 774.304 302.434C775.623 302.807 776.827 303.294 777.916 303.896C779.034 304.469 779.923 305.243 780.582 306.218C781.27 307.193 781.614 308.468 781.614 310.045C781.614 311.507 781.213 312.869 780.41 314.13C779.607 315.363 778.375 316.366 776.712 317.14C775.078 317.885 772.971 318.258 770.391 318.258Z" fill="#24043D"/>
<defs>
<linearGradient id="paint0_linear_2_11" x1="447.5" y1="-13" x2="414.5" y2="238.5" gradientUnits="userSpaceOnUse">
<stop stop-color="#7700D5"/>
<stop offset="1" stop-color="#6D00C2"/>
</linearGradient>
</defs>
</svg>
