<svg width="794" height="216" viewBox="0 0 794 216" fill="none" xmlns="http://www.w3.org/2000/svg">
<path d="M195.978 176.637C195.978 183.602 194.742 188.769 192.271 192.139C189.799 195.509 185.868 198.767 180.476 201.912C177.33 203.709 173.399 205.507 168.681 207.304C163.963 208.877 158.795 210.225 153.179 211.348C147.562 212.696 141.608 213.707 135.318 214.381C129.252 215.055 123.186 215.392 117.12 215.392C100.944 215.392 85.7786 213.258 71.6246 208.989C57.4706 204.496 45.1139 197.868 34.5546 189.106C24.2199 180.119 16.0196 168.998 9.95357 155.743C3.88757 142.488 0.85457 127.098 0.85457 109.574C0.85457 91.1513 4.11224 75.0877 10.6276 61.383C17.3676 47.6783 26.1296 36.3327 36.9136 27.346C47.9222 18.1347 60.3912 11.2823 74.3206 6.78898C88.4746 2.29566 102.966 0.0489913 117.794 0.0489913C139.137 0.0489913 155.987 3.53133 168.344 10.496C180.925 17.236 187.216 26.1103 187.216 37.119C187.216 42.9603 185.755 48.0153 182.835 52.284C179.914 56.5527 176.544 59.9227 172.725 62.394C167.108 59.024 160.031 55.7663 151.494 52.621C143.181 49.251 133.745 47.566 123.186 47.566C104.314 47.566 89.2609 52.958 78.0276 63.742C67.0189 74.526 61.5146 89.4663 61.5146 108.563C61.5146 118.898 62.9749 127.884 65.8956 135.523C69.0409 142.937 73.1972 149.115 78.3646 154.058C83.5319 158.776 89.4856 162.371 96.2256 164.842C102.966 167.089 110.155 168.212 117.794 168.212C122.736 168.212 127.117 167.763 130.937 166.864C134.756 165.965 137.677 164.954 139.699 163.831V132.153H103.64C102.292 129.682 100.944 126.424 99.5956 122.38C98.4722 118.336 97.9106 114.067 97.9106 109.574C97.9106 101.486 99.7079 95.6447 103.303 92.05C107.122 88.4553 111.952 86.658 117.794 86.658H174.747C181.487 86.658 186.654 88.5677 190.249 92.387C194.068 95.9817 195.978 101.149 195.978 107.889V176.637ZM266.095 211.011C256.434 211.011 248.795 208.203 243.179 202.586C237.562 196.969 234.754 189.331 234.754 179.67V5.44098C237.225 4.99165 241.157 4.42999 246.549 3.75598C251.941 2.85732 257.108 2.40798 262.051 2.40798C267.218 2.40798 271.711 2.85732 275.531 3.75598C279.575 4.42999 282.945 5.77799 285.641 7.79999C288.337 9.82199 290.359 12.6303 291.707 16.225C293.055 19.8197 293.729 24.5377 293.729 30.379V163.494H370.902C372.474 165.965 373.935 169.335 375.283 173.604C376.631 177.648 377.305 181.917 377.305 186.41C377.305 195.397 375.395 201.8 371.576 205.619C367.756 209.214 362.701 211.011 356.411 211.011H266.095ZM585.21 134.512C585.21 146.644 583.076 157.765 578.807 167.875C574.763 177.76 568.809 186.298 560.946 193.487C553.083 200.452 543.534 205.844 532.301 209.663C521.068 213.482 508.374 215.392 494.22 215.392C480.066 215.392 467.372 213.482 456.139 209.663C444.906 205.844 435.357 200.452 427.494 193.487C419.631 186.298 413.565 177.76 409.296 167.875C405.252 157.765 403.23 146.644 403.23 134.512V5.778C405.701 5.32866 409.633 4.76699 415.025 4.093C420.417 3.19433 425.584 2.745 430.527 2.745C435.694 2.745 440.188 3.19433 444.007 4.093C448.051 4.76699 451.421 6.11499 454.117 8.13699C456.813 10.159 458.835 12.9673 460.183 16.562C461.531 20.1567 462.205 24.8747 462.205 30.716V133.501C462.205 144.285 465.126 152.71 470.967 158.776C477.033 164.842 484.784 167.875 494.22 167.875C503.881 167.875 511.632 164.842 517.473 158.776C523.314 152.71 526.235 144.285 526.235 133.501V5.778C528.706 5.32866 532.638 4.76699 538.03 4.093C543.422 3.19433 548.589 2.745 553.532 2.745C558.699 2.745 563.193 3.19433 567.012 4.093C571.056 4.76699 574.426 6.11499 577.122 8.13699C579.818 10.159 581.84 12.9673 583.188 16.562C584.536 20.1567 585.21 24.8747 585.21 30.716V134.512ZM704.529 100.475C713.965 100.475 721.154 98.3407 726.097 94.072C731.264 89.5787 733.848 82.8387 733.848 73.852C733.848 65.3147 731.152 58.7993 725.76 54.306C720.593 49.588 712.954 47.229 702.844 47.229C699.249 47.229 696.216 47.3413 693.745 47.566C691.498 47.566 689.139 47.7907 686.668 48.24V100.475H704.529ZM687.005 208.652C684.534 209.326 680.602 210 675.21 210.674C670.043 211.348 664.875 211.685 659.708 211.685C654.541 211.685 649.935 211.236 645.891 210.337C642.072 209.663 638.814 208.315 636.118 206.293C633.422 204.271 631.4 201.463 630.052 197.868C628.704 194.273 628.03 189.555 628.03 183.714V24.987C628.03 20.269 629.266 16.6743 631.737 14.203C634.433 11.507 638.028 9.37265 642.521 7.79999C650.16 5.10399 658.809 3.19432 668.47 2.07099C678.355 0.722989 688.241 0.0489913 698.126 0.0489913C729.13 0.0489913 752.832 6.67666 769.233 19.932C785.634 33.1873 793.834 51.1607 793.834 73.852C793.834 84.8607 792.037 94.8583 788.442 103.845C785.072 112.607 779.905 120.246 772.94 126.761C766.2 133.052 757.55 137.994 746.991 141.589C736.656 144.959 724.637 146.644 710.932 146.644H687.005V208.652Z" fill="url(#paint0_linear_2_3)"/>
<defs>
<linearGradient id="paint0_linear_2_3" x1="436.5" y1="-14" x2="403.5" y2="237.5" gradientUnits="userSpaceOnUse">
<stop stop-color="#7700D5"/>
<stop offset="1" stop-color="#6D00C2"/>
</linearGradient>
</defs>
</svg>
