<svg width="32" height="32" viewBox="0 0 32 32" fill="none" xmlns="http://www.w3.org/2000/svg">
<mask id="mask0_4_3" style="mask-type:alpha" maskUnits="userSpaceOnUse" x="0" y="0" width="32" height="32">
<circle cx="16" cy="16" r="16" fill="#D9D9D9"/>
</mask>
<g mask="url(#mask0_4_3)">
<rect x="-0.0319824" width="32" height="32" fill="url(#paint0_linear_4_3)"/>
<path d="M8.89534 17.812C8.89534 18.06 8.85134 18.244 8.76334 18.364C8.67534 18.484 8.53534 18.6 8.34334 18.712C8.23134 18.776 8.09134 18.84 7.92334 18.904C7.75534 18.96 7.57134 19.008 7.37134 19.048C7.17134 19.096 6.95934 19.132 6.73534 19.156C6.51934 19.18 6.30334 19.192 6.08734 19.192C5.51134 19.192 4.97134 19.116 4.46734 18.964C3.96334 18.804 3.52334 18.568 3.14734 18.256C2.77934 17.936 2.48734 17.54 2.27134 17.068C2.05534 16.596 1.94734 16.048 1.94734 15.424C1.94734 14.768 2.06334 14.196 2.29534 13.708C2.53534 13.22 2.84734 12.816 3.23134 12.496C3.62334 12.168 4.06734 11.924 4.56334 11.764C5.06734 11.604 5.58334 11.524 6.11134 11.524C6.87134 11.524 7.47134 11.648 7.91134 11.896C8.35934 12.136 8.58334 12.452 8.58334 12.844C8.58334 13.052 8.53134 13.232 8.42734 13.384C8.32334 13.536 8.20334 13.656 8.06734 13.744C7.86734 13.624 7.61534 13.508 7.31134 13.396C7.01534 13.276 6.67934 13.216 6.30334 13.216C5.63134 13.216 5.09534 13.408 4.69534 13.792C4.30334 14.176 4.10734 14.708 4.10734 15.388C4.10734 15.756 4.15934 16.076 4.26334 16.348C4.37534 16.612 4.52334 16.832 4.70734 17.008C4.89134 17.176 5.10334 17.304 5.34334 17.392C5.58334 17.472 5.83934 17.512 6.11134 17.512C6.28734 17.512 6.44334 17.496 6.57934 17.464C6.71534 17.432 6.81934 17.396 6.89134 17.356V16.228H5.60734C5.55934 16.14 5.51134 16.024 5.46334 15.88C5.42334 15.736 5.40334 15.584 5.40334 15.424C5.40334 15.136 5.46734 14.928 5.59534 14.8C5.73134 14.672 5.90334 14.608 6.11134 14.608H8.13934C8.37934 14.608 8.56334 14.676 8.69134 14.812C8.82734 14.94 8.89534 15.124 8.89534 15.364V17.812ZM11.3921 19.036C11.0481 19.036 10.7761 18.936 10.5761 18.736C10.3761 18.536 10.2761 18.264 10.2761 17.92V11.716C10.3641 11.7 10.5041 11.68 10.6961 11.656C10.8881 11.624 11.0721 11.608 11.2481 11.608C11.4321 11.608 11.5921 11.624 11.7281 11.656C11.8721 11.68 11.9921 11.728 12.0881 11.8C12.1841 11.872 12.2561 11.972 12.3041 12.1C12.3521 12.228 12.3761 12.396 12.3761 12.604V17.344H15.1241C15.1801 17.432 15.2321 17.552 15.2801 17.704C15.3281 17.848 15.3521 18 15.3521 18.16C15.3521 18.48 15.2841 18.708 15.1481 18.844C15.0121 18.972 14.8321 19.036 14.6081 19.036H11.3921ZM22.7553 16.312C22.7553 16.744 22.6793 17.14 22.5273 17.5C22.3832 17.852 22.1713 18.156 21.8913 18.412C21.6113 18.66 21.2713 18.852 20.8713 18.988C20.4713 19.124 20.0193 19.192 19.5153 19.192C19.0113 19.192 18.5593 19.124 18.1593 18.988C17.7593 18.852 17.4193 18.66 17.1393 18.412C16.8593 18.156 16.6433 17.852 16.4913 17.5C16.3473 17.14 16.2753 16.744 16.2753 16.312V11.728C16.3633 11.712 16.5033 11.692 16.6953 11.668C16.8873 11.636 17.0713 11.62 17.2473 11.62C17.4313 11.62 17.5913 11.636 17.7273 11.668C17.8713 11.692 17.9913 11.74 18.0873 11.812C18.1833 11.884 18.2553 11.984 18.3033 12.112C18.3513 12.24 18.3753 12.408 18.3753 12.616V16.276C18.3753 16.66 18.4793 16.96 18.6873 17.176C18.9033 17.392 19.1793 17.5 19.5153 17.5C19.8593 17.5 20.1353 17.392 20.3433 17.176C20.5513 16.96 20.6553 16.66 20.6553 16.276V11.728C20.7433 11.712 20.8833 11.692 21.0753 11.668C21.2673 11.636 21.4513 11.62 21.6273 11.62C21.8113 11.62 21.9713 11.636 22.1073 11.668C22.2513 11.692 22.3713 11.74 22.4673 11.812C22.5633 11.884 22.6353 11.984 22.6833 12.112C22.7313 12.24 22.7553 12.408 22.7553 12.616V16.312ZM27.004 15.1C27.34 15.1 27.596 15.024 27.772 14.872C27.956 14.712 28.048 14.472 28.048 14.152C28.048 13.848 27.952 13.616 27.76 13.456C27.576 13.288 27.304 13.204 26.944 13.204C26.816 13.204 26.708 13.208 26.62 13.216C26.54 13.216 26.456 13.224 26.368 13.24V15.1H27.004ZM26.38 18.952C26.292 18.976 26.152 19 25.96 19.024C25.776 19.048 25.592 19.06 25.408 19.06C25.224 19.06 25.06 19.044 24.916 19.012C24.78 18.988 24.664 18.94 24.568 18.868C24.472 18.796 24.4 18.696 24.352 18.568C24.304 18.44 24.28 18.272 24.28 18.064V12.412C24.28 12.244 24.324 12.116 24.412 12.028C24.508 11.932 24.636 11.856 24.796 11.8C25.068 11.704 25.376 11.636 25.72 11.596C26.072 11.548 26.424 11.524 26.776 11.524C27.88 11.524 28.724 11.76 29.308 12.232C29.892 12.704 30.184 13.344 30.184 14.152C30.184 14.544 30.12 14.9 29.992 15.22C29.872 15.532 29.688 15.804 29.44 16.036C29.2 16.26 28.892 16.436 28.516 16.564C28.148 16.684 27.72 16.744 27.232 16.744H26.38V18.952Z" fill="url(#paint1_linear_4_3)"/>
</g>
<defs>
<linearGradient id="paint0_linear_4_3" x1="31.088" y1="0.896" x2="0.624019" y2="31.408" gradientUnits="userSpaceOnUse">
<stop stop-color="#A2E13A"/>
<stop offset="1" stop-color="#7DBC16"/>
</linearGradient>
<linearGradient id="paint1_linear_4_3" x1="17.5129" y1="10.5339" x2="16.362" y2="19.5603" gradientUnits="userSpaceOnUse">
<stop stop-color="#7700D5"/>
<stop offset="1" stop-color="#6D00C2"/>
</linearGradient>
</defs>
</svg>
